# xmcd
#
# Track frame offsets:
#	150
#	22210
#	41188
#	56415
#	73160
#	88318
#	101025
#	119600
#	138670
#	156185
#	171040
#	189580
#	211048
#	230970
#	244755
#	260845
#	278985
#	295333
#	314803
#	331560
#
# Disc length: 4603 seconds
#
# Revision: 3
# Processed by: cddbd v1.5.2PL0 Copyright (c) Steve Scherf et al.
# Submitted via: EasyCDDAExtractor 16.0.9.1
#
DISCID=4511f914
DTITLE=Chitaozinho and Xororo - Novo Millennium
DYEAR=2005
DGENRE=Sertanejo
TTITLE0=Chitaozinho and Xororo - Evidencias
TTITLE1=Chitaozinho and Xororo Feat. Roupa Nova - Frio da solidão
TTITLE2=Chitaozinho and Xororo - Pura emoção
TTITLE3=Chitaozinho and Xororo - Frete
TTITLE4=Chitaozinho and Xororo - Alô
TTITLE5=Chitaozinho and Xororo - Na aba do meu chapéu
TTITLE6=Chitaozinho and Xororo - Coração vazio
TTITLE7=Chitaozinho and Xororo - No rancho fundo
TTITLE8=Chitaozinho and Xororo - Se deus me ouvisse
TTITLE9=Chitaozinho and Xororo Feat. Bee Gees - Palavras
TTITLE10=Chitaozinho and Xororo - Foge de mim
TTITLE11=Chitaozinho and Xororo - Um homem quando ama
TTITLE12=Chitaozinho and Xororo - Página virada
TTITLE13=Chitaozinho and Xororo - Fio de cabelo
TTITLE14=Chitaozinho and Xororo - Coração sertanejo
TTITLE15=Chitaozinho and Xororo - Deslizes
TTITLE16=Chitaozinho and Xororo - Pensando em minha amada
TTITLE17=Chitaozinho and Xororo - Falando as paredes
TTITLE18=Chitaozinho and Xororo - Deixa
TTITLE19=Chitaozinho and Xororo - Nascemos para cantar
EXTD=YEAR: 2005\n
EXTT0=
EXTT1=
EXTT2=
EXTT3=
EXTT4=
EXTT5=
EXTT6=
EXTT7=
EXTT8=
EXTT9=
EXTT10=
EXTT11=
EXTT12=
EXTT13=
EXTT14=
EXTT15=
EXTT16=
EXTT17=
EXTT18=
EXTT19=
PLAYORDER=
